<svg width="24" height="24" viewBox="0 0 24 24" fill="none" xmlns="http://www.w3.org/2000/svg">
<path d="M5.96721 20.92V7.82844H2.3999V20.92H5.96721ZM5.96721 6.01155V3H2.3999V6.01155H5.96721Z" fill="white"/>
<path d="M9.4409 7.82844V20.92H13.0082V12.2338C13.6614 11.1636 14.817 10.5662 15.8721 10.5662C16.6509 10.5662 17.3041 10.84 17.6306 11.4871C18.0075 12.2338 18.0326 13.3289 18.0326 14.2996V20.92H21.5999V14.1253C21.5999 12.2587 21.4492 10.5662 20.4192 9.24711C19.5901 8.20178 18.3341 7.52978 16.9021 7.52978C15.445 7.52978 13.8624 8.152 12.8072 9.62044L12.5309 7.82844H9.4409Z" fill="white"/>
</svg>
