<svg width="138" height="556" viewBox="0 0 138 556" fill="none" xmlns="http://www.w3.org/2000/svg">
<path d="M64.4445 113.423C59.9388 109.774 56.871 105.453 55.2413 100.46C52.7487 93.5455 51.5025 86.1513 51.5025 78.277L52.0777 76.4044L49.0579 75.8282V77.1246L43.4497 78.8532V80.1495C36.5472 83.0304 29.1655 84.6629 21.3044 85.047L18.8598 83.8947C16.3673 81.3979 15.3607 78.5171 15.84 75.2521C17.4697 69.8745 20.3457 65.1211 24.468 60.9918C36.739 53.2135 48.1951 44.1868 58.8363 33.9117C69.5734 23.6367 79.8791 12.9295 89.7534 1.79016L94.0674 0.493774L101.401 4.81506C104.661 8.17607 106.53 12.1132 107.009 16.6266C105.38 19.5074 103.319 21.7641 100.826 23.3966H99.5318C96.2723 29.1583 92.3897 34.4879 87.884 39.3854L81.1253 47.4518V49.3243L82.9947 54.798L82.2757 60.9918C84.3848 67.6178 85.8228 74.5319 86.5898 81.734C87.4526 88.9362 87.6922 96.4264 87.3088 104.205L84.1451 111.551L78.6807 112.271L74.9419 111.551L64.4445 113.423Z" fill="white" fill-opacity="0.1"/>
<path d="M75.8047 266.397C70.532 261.596 66.5056 256.074 63.7255 249.832L57.2545 227.65C50.5438 228.13 44.3125 227.554 38.5604 225.921C32.9043 224.193 27.2002 222.368 21.4482 220.447L20.7292 217.711C18.3325 216.75 16.8945 214.83 16.4152 211.949L14.402 207.628L19.2912 206.187L31.5142 207.628L50.0645 202.586V198.265L47.9075 183.284C44.5521 183.284 41.4844 182.084 38.7042 179.683L37.9852 177.523L35.1092 176.082L32.2332 169.024L38.7042 167.584L40.7175 168.304L45.7505 166.863L46.4695 149.578L45.0315 143.961H46.4695V142.52L52.2215 141.8L59.4115 143.961L61.5685 146.121C64.3486 150.827 66.218 155.82 67.1767 161.102L69.3337 161.822C77.0031 158.461 85.3435 156.78 94.355 156.78L108.016 158.941L109.454 165.423C104.181 169.168 98.669 172.385 92.917 175.074C87.2608 177.667 81.3171 179.443 75.0857 180.403V185.445L79.3997 198.985H82.9947C92.4856 197.064 102.024 195.432 111.611 194.088L119.376 201.146H120.814L121.533 205.467L128.004 207.628V208.348L123.69 211.229V213.389C114.199 217.711 104.181 220.783 93.636 222.608L92.917 226.209C95.3136 235.332 96.7516 244.647 97.231 254.153L96.512 258.475L92.917 259.195V262.076L81.5567 264.957V266.397H75.8047Z" fill="white" fill-opacity="0.1"/>
<path d="M0.884766 410.584V409.144C4.04837 398.196 7.54751 387.489 11.3822 377.022C15.3127 366.459 19.5788 355.896 24.1804 345.333H20.0102L16.559 346.053L14.5458 343.316L11.8136 341.299L7.64338 331.649L5.63018 330.928L3.61697 326.895L6.34918 322.718H10.3756C14.1144 324.542 18.2367 325.263 22.7424 324.879L33.6712 320.701C37.3142 310.618 39.8546 300.343 41.2927 289.876L44.0249 289.156L44.7439 287.139H46.7571C52.7008 288.004 57.9256 290.02 62.4313 293.189C64.7321 298.759 65.6428 304.953 65.1635 311.771H66.6015L82.9947 309.754L87.165 310.474L89.1782 309.754L102.839 315.228C105.14 323.486 106.29 332.177 106.29 341.299C106.29 350.422 105.715 359.209 104.565 367.659C103.414 376.11 102.168 384.704 100.826 393.443L102.264 398.917L95.3616 401.653V403.094C89.8972 404.918 83.9534 406.023 77.5303 406.407C73.4081 405.543 69.5254 403.718 65.8825 400.933V399.637L61.8561 396.9C58.5966 391.811 56.0562 386.529 54.2347 381.055L55.6727 378.318C62.4792 377.838 68.6147 375.342 74.0791 370.828C75.9006 364.874 77.1469 358.585 77.8179 351.959C78.5849 345.333 79.208 338.563 79.6873 331.649L76.8113 330.928C71.3469 333.233 66.1222 336.018 61.1371 339.283L56.3917 349.51L52.2215 350.23L51.5025 352.967H50.2083C47.4281 360.745 43.9769 368.283 39.8546 375.582L37.8414 376.302C35.5406 381.776 32.8084 386.817 29.6448 391.426L14.5458 404.39H12.5326V405.831L0.884766 410.584ZM115.494 320.413C112.426 319.069 109.598 317.484 107.009 315.66L106.722 314.507L100.395 309.466L97.6624 306.729H96.512L96.2244 305.433L95.5054 305.001C93.1087 302.024 91.7186 298.663 91.3352 294.918L91.9104 293.045H93.4922V292.613H95.2178L98.669 294.918C102.12 297.991 105.907 300.727 110.029 303.128C114.151 305.529 117.746 308.458 120.814 311.915H120.383V312.635L121.389 313.499H120.095V314.363L120.383 315.228H121.246L121.821 317.676L118.37 318.109V319.117H116.932V320.413H115.494ZM130.88 307.017L124.265 303.704V302.984L122.108 301.976C119.808 298.711 117.507 295.446 115.206 292.181C113.001 288.82 111.563 285.171 110.892 281.234L111.323 280.369L114.775 279.937C119.472 282.242 123.93 285.219 128.148 288.868V289.444L132.318 292.613C135.194 295.206 136.824 298.183 137.207 301.544H136.632V304.568H135.05L134.763 305.721L130.88 307.017Z" fill="white" fill-opacity="0.1"/>
<path d="M64.4445 555.923C59.9388 552.274 56.871 547.953 55.2413 542.96C52.7487 536.046 51.5025 528.651 51.5025 520.777L52.0777 518.904L49.0579 518.328V519.625L43.4497 521.353V522.65C36.5472 525.53 29.1655 527.163 21.3044 527.547L18.8598 526.395C16.3673 523.898 15.3607 521.017 15.84 517.752C17.4697 512.374 20.3457 507.621 24.468 503.492C36.739 495.714 48.1951 486.687 58.8363 476.412C69.5734 466.137 79.8791 455.429 89.7534 444.29L94.0674 442.994L101.401 447.315C104.661 450.676 106.53 454.613 107.009 459.127C105.38 462.007 103.319 464.264 100.826 465.897H99.5318C96.2723 471.658 92.3897 476.988 87.884 481.885L81.1253 489.952V491.824L82.9947 497.298L82.2757 503.492C84.3848 510.118 85.8228 517.032 86.5898 524.234C87.4526 531.436 87.6922 538.926 87.3088 546.705L84.1451 554.051L78.6807 554.771L74.9419 554.051L64.4445 555.923Z" fill="white" fill-opacity="0.1"/>
</svg>
