<svg width="305" height="306" viewBox="0 0 305 306" fill="none" xmlns="http://www.w3.org/2000/svg">
<path fill-rule="evenodd" clip-rule="evenodd" d="M68.2928 92.1961C68.2928 84.9186 69.2108 77.8559 70.9373 71.1179C77.664 69.3885 84.7148 68.4688 91.9801 68.4688C113.415 68.4688 132.983 76.4737 147.868 89.6618C137.978 99.9236 130.469 112.503 126.232 126.506C112.252 130.75 99.6946 138.272 89.4501 148.178C76.2842 133.268 68.2928 113.667 68.2928 92.1961ZM124.271 134.183C112.866 138.267 102.594 144.74 94.0576 153.001C102.594 161.261 112.866 167.734 124.271 171.818C123 165.746 122.331 159.451 122.331 153.001C122.331 146.55 123 140.256 124.271 134.183ZM131.639 174.079C129.913 167.341 128.995 160.278 128.995 153.001C128.995 145.723 129.913 138.66 131.639 131.922C138.366 130.193 145.417 129.273 152.682 129.273C159.947 129.273 166.998 130.193 173.725 131.922C175.451 138.66 176.369 145.723 176.369 153.001C176.369 160.278 175.451 167.341 173.725 174.079C166.998 175.808 159.947 176.728 152.682 176.728C145.417 176.728 138.366 175.808 131.639 174.079ZM126.232 179.495C112.252 175.251 99.6946 167.729 89.4501 157.823C76.2842 172.733 68.2928 192.334 68.2928 213.805C68.2928 221.083 69.2109 228.145 70.9373 234.883C77.664 236.613 84.7148 237.532 91.9801 237.532C113.415 237.532 132.983 229.527 147.868 216.339C137.978 206.077 130.469 193.499 126.232 179.495ZM152.682 211.724C144.436 203.173 137.974 192.884 133.897 181.46C139.959 182.733 146.242 183.403 152.682 183.403C159.122 183.403 165.406 182.733 171.467 181.46C167.39 192.884 160.928 203.173 152.682 211.724ZM152.682 220.983C136.573 235.425 115.3 244.207 91.9801 244.207C85.5402 244.207 79.2565 243.538 73.1946 242.264C84.8585 274.949 116.044 298.337 152.682 298.337C189.321 298.337 220.506 274.949 232.17 242.264C226.108 243.538 219.824 244.207 213.384 244.207C190.064 244.207 168.791 235.425 152.682 220.983ZM234.427 234.883C227.7 236.613 220.649 237.532 213.384 237.532C191.949 237.532 172.381 229.527 157.496 216.339C167.386 206.077 174.895 193.499 179.132 179.495C193.112 175.251 205.67 167.729 215.914 157.823C229.08 172.733 237.071 192.334 237.071 213.805C237.071 221.083 236.153 228.145 234.427 234.883ZM239.834 240.299C228.502 277.75 193.77 305.012 152.682 305.012C111.594 305.012 76.8621 277.75 65.5302 240.299C28.1425 228.948 0.927002 194.158 0.927002 153.001C0.927002 111.843 28.1425 77.0527 65.5302 65.7016C76.8621 28.2508 111.594 0.98938 152.682 0.98938C193.77 0.98938 228.502 28.2508 239.834 65.7016C277.222 77.0527 304.437 111.843 304.437 153.001C304.437 194.158 277.222 228.948 239.834 240.299ZM241.795 73.379C274.425 85.0625 297.773 116.3 297.773 153.001C297.773 189.701 274.425 220.939 241.795 232.622C243.067 226.55 243.735 220.256 243.735 213.805C243.735 190.445 234.968 169.137 220.55 153.001C234.968 136.864 243.735 115.556 243.735 92.1961C243.735 85.7454 243.067 79.4511 241.795 73.379ZM232.17 63.7371C220.506 31.0525 189.321 7.66434 152.682 7.66434C116.044 7.66434 84.8585 31.0525 73.1946 63.7371C79.2565 62.4635 85.5402 61.7938 91.9801 61.7938C115.3 61.7938 136.573 70.5756 152.682 85.0179C168.791 70.5756 190.064 61.7938 213.384 61.7938C219.824 61.7938 226.108 62.4635 232.17 63.7371ZM157.496 89.6618C172.381 76.4737 191.949 68.4688 213.384 68.4688C220.649 68.4688 227.7 69.3885 234.427 71.1179C236.153 77.8559 237.071 84.9186 237.071 92.1961C237.071 113.667 229.08 133.268 215.914 148.178C205.67 138.272 193.112 130.75 179.132 126.506C174.895 112.503 167.386 99.9236 157.496 89.6618ZM152.682 94.2771C160.928 102.828 167.391 113.117 171.468 124.542C165.406 123.268 159.122 122.598 152.682 122.598C146.242 122.598 139.959 123.268 133.897 124.542C137.974 113.117 144.436 102.828 152.682 94.2771ZM61.629 92.1961C61.629 85.7454 62.2976 79.4511 63.569 73.379C30.9394 85.0625 7.59072 116.3 7.59072 153.001C7.59072 189.701 30.9394 220.939 63.569 232.622C62.2976 226.55 61.629 220.256 61.629 213.805C61.629 190.445 70.396 169.137 84.814 153.001C70.396 136.864 61.629 115.556 61.629 92.1961ZM183.033 153.001C183.033 159.451 182.365 165.746 181.093 171.818C192.498 167.734 202.77 161.261 211.307 153.001C202.77 144.74 192.498 138.267 181.093 134.183C182.365 140.256 183.033 146.55 183.033 153.001Z" fill="white"/>
</svg>
